<mxfile host="app.diagrams.net" modified="2020-10-20T09:07:23.771Z" agent="5.0 (Windows NT 10.0; Win64; x64) AppleWebKit/537.36 (KHTML, like Gecko) Chrome/86.0.4240.80 Safari/537.36 Edg/86.0.622.43" etag="mqov6fA5kN1jUwj1uwsQ" version="13.8.0" type="github">
  <diagram id="OTZQhhB3zPqmYjMPg8M4" name="Page-1">
    <mxGraphModel dx="1038" dy="579" grid="1" gridSize="10" guides="1" tooltips="1" connect="1" arrows="1" fold="1" page="1" pageScale="1" pageWidth="827" pageHeight="1169" math="0" shadow="0">
      <root>
        <mxCell id="0" />
        <mxCell id="1" parent="0" />
        <mxCell id="AQ3QnmHPtA5C9Rm13XZ_-16" value="View todo list,,&lt;br&gt;create new todo items,&lt;br&gt;&amp;nbsp;and update items" style="edgeStyle=orthogonalEdgeStyle;rounded=0;orthogonalLoop=1;jettySize=auto;html=1;dashed=1;exitX=0.5;exitY=1;exitDx=0;exitDy=0;exitPerimeter=0;" edge="1" parent="1" source="AQ3QnmHPtA5C9Rm13XZ_-1" target="AQ3QnmHPtA5C9Rm13XZ_-2">
          <mxGeometry relative="1" as="geometry" />
        </mxCell>
        <mxCell id="AQ3QnmHPtA5C9Rm13XZ_-1" value="" style="aspect=fixed;pointerEvents=1;shadow=0;dashed=0;html=1;strokeColor=none;labelPosition=center;verticalLabelPosition=bottom;verticalAlign=top;align=center;fillColor=#00188D;shape=mxgraph.azure.user" vertex="1" parent="1">
          <mxGeometry x="150" y="83" width="56.4" height="60" as="geometry" />
        </mxCell>
        <mxCell id="AQ3QnmHPtA5C9Rm13XZ_-2" value="&lt;font color=&quot;#ffffff&quot;&gt;ToDo App&lt;br&gt;[Software System]&lt;br&gt;&lt;br&gt;Allows users to create / update TodoList&lt;/font&gt;" style="whiteSpace=wrap;html=1;aspect=fixed;fillColor=#007FFF;" vertex="1" parent="1">
          <mxGeometry x="113.2" y="240" width="130" height="130" as="geometry" />
        </mxCell>
        <mxCell id="AQ3QnmHPtA5C9Rm13XZ_-3" value="Trello System&lt;br&gt;[Sofware System]&lt;br&gt;&lt;br&gt;The 3rd party system to create store ToDo cards" style="whiteSpace=wrap;html=1;aspect=fixed;fillColor=#E6E6E6;" vertex="1" parent="1">
          <mxGeometry x="424" y="240" width="130" height="130" as="geometry" />
        </mxCell>
        <mxCell id="AQ3QnmHPtA5C9Rm13XZ_-13" value="" style="endArrow=classic;html=1;exitX=1;exitY=0.5;exitDx=0;exitDy=0;entryX=0;entryY=0.5;entryDx=0;entryDy=0;dashed=1;" edge="1" parent="1" source="AQ3QnmHPtA5C9Rm13XZ_-2" target="AQ3QnmHPtA5C9Rm13XZ_-3">
          <mxGeometry width="50" height="50" relative="1" as="geometry">
            <mxPoint x="390" y="260" as="sourcePoint" />
            <mxPoint x="440" y="210" as="targetPoint" />
          </mxGeometry>
        </mxCell>
        <mxCell id="AQ3QnmHPtA5C9Rm13XZ_-14" value="Gets todo from tello board&lt;br&gt;perform updates&amp;nbsp;on Trello" style="edgeLabel;html=1;align=center;verticalAlign=middle;resizable=0;points=[];" vertex="1" connectable="0" parent="AQ3QnmHPtA5C9Rm13XZ_-13">
          <mxGeometry x="0.0986" y="-1" relative="1" as="geometry">
            <mxPoint x="-7.2" y="-1" as="offset" />
          </mxGeometry>
        </mxCell>
      </root>
    </mxGraphModel>
  </diagram>
</mxfile>
